<svg xmlns="http://www.w3.org/2000/svg" xmlns:svg="http://www.w3.org/2000/svg" xmlns:xlink="http://www.w3.org/1999/xlink" id="svg6253" width="800" height="800" version="1.0"><defs id="defs6255"><linearGradient id="linearGradient7278"><stop id="stop7280" offset="0" stop-color="#ff3232" stop-opacity="1"/><stop id="stop7282" offset="1" stop-color="#ffd5d5" stop-opacity="0"/></linearGradient><linearGradient id="linearGradient7284" x1="202.711" x2="111.138" y1="543.001" y2="636.474" gradientTransform="matrix(0.9465301,-0.3218162,0.4291991,1.2623663,-150.23274,23.798575)" gradientUnits="userSpaceOnUse" xlink:href="#linearGradient7278"/><linearGradient id="linearGradient7290" x1="47.685" x2="111.138" y1="591.997" y2="636.474" gradientTransform="matrix(0.9465301,-0.3218162,0.4291991,1.2623663,-150.23274,23.798575)" gradientUnits="userSpaceOnUse" xlink:href="#linearGradient7278"/></defs><metadata id="metadata6258"/><g id="layer1"><path id="path7236" fill="#ff1e1e" fill-opacity="1" stroke="#000" stroke-dasharray="none" stroke-miterlimit="4" stroke-opacity="1" stroke-width="1.155" d="M 271.29922,21.308736 C 114.55384,74.601495 45.024551,287.51563 116.09992,496.56348 C 187.1753,705.61132 372.07332,832.02125 528.8187,778.7285 C 685.56408,725.43574 755.09337,512.52161 684.018,303.47376 C 612.94262,94.425916 428.0446,-31.984023 271.29922,21.308736 z M 292.75918,84.427059 C 423.38034,40.016423 577.462,145.35803 636.69148,319.56457 C 695.92096,493.77112 637.9799,671.19954 507.35874,715.61018 C 376.73758,760.02082 222.65592,654.67921 163.42644,480.47267 C 104.19696,306.26612 162.13802,128.83769 292.75918,84.427059 z M 327.09511,185.41635 C 238.27272,215.61559 198.8728,336.26693 239.14884,454.72737 C 279.42489,573.18783 384.20042,644.82011 473.02281,614.62088 C 561.8452,584.42164 601.24513,463.77032 560.96908,345.30987 C 520.69303,226.84942 415.9175,155.21712 327.09511,185.41635 z M 350.40599,253.97862 C 410.84649,233.4291 482.15423,282.18033 509.56066,362.78851 C 536.9671,443.39667 510.15244,525.50911 449.71194,546.05862 C 389.27143,566.60814 317.96369,517.8569 290.55726,437.24873 C 263.15082,356.64056 289.96548,274.52813 350.40599,253.97862 z M 373.36814,321.51522 C 340.87949,332.56122 326.46482,376.70215 341.19662,420.03156 C 355.92844,463.36098 394.26112,489.56801 426.74978,478.52202 C 459.23844,467.47602 473.65311,423.33509 458.9213,380.00568 C 444.18949,336.67626 405.8568,310.46922 373.36814,321.51522 z" opacity="1"/></g></svg>